<svg width="24" height="24" viewBox="0 0 24 24" fill="none" xmlns="http://www.w3.org/2000/svg">
<path d="M15 12C16.1046 12 17 11.1046 17 10C17 8.89543 16.1046 8 15 8C13.8954 8 13 8.89543 13 10C13 11.1046 13.8954 12 15 12Z" fill="black"/>
<path d="M11 10C11 11.1046 10.1046 12 9 12C7.89543 12 7 11.1046 7 10C7 8.89543 7.89543 8 9 8C10.1046 8 11 8.89543 11 10Z" fill="black"/>
<path fill-rule="evenodd" clip-rule="evenodd" d="M20 2H4C2.897 2 2 2.897 2 4V16C2 17.103 2.897 18 4 18H7V21.766L13.277 18H20C21.103 18 22 17.103 22 16V4C22 2.897 21.103 2 20 2ZM20 16H12.723L9 18.234V16H4V4H20V16Z" fill="black"/>
</svg>
