<svg width="24" height="24" viewBox="0 0 24 24" fill="none" xmlns="http://www.w3.org/2000/svg">
<path d="M3 5V3H10C10.2652 3 10.5196 3.10536 10.7071 3.29289C10.8946 3.48043 11 3.73478 11 4V20C11 20.2652 10.8946 20.5196 10.7071 20.7071C10.5196 20.8946 10.2652 21 10 21H3V19H9V5H3Z" fill="black"/>
<path d="M21 21H14C13.7348 21 13.4804 20.8946 13.2929 20.7071C13.1054 20.5196 13 20.2652 13 20V4C13 3.73478 13.1054 3.48043 13.2929 3.29289C13.4804 3.10536 13.7348 3 14 3H21V5H15V19H21V21Z" fill="black"/>
</svg>
