<svg width="24" height="24" viewBox="0 0 24 24" fill="none" xmlns="http://www.w3.org/2000/svg">
<path d="M11.293 5.63599L12 4.92899C12.9385 3.9928 14.2099 3.46704 15.5355 3.46704C16.8611 3.46704 18.1325 3.9928 19.071 4.92899C20.0067 5.86771 20.5321 7.13908 20.5321 8.46449C20.5321 9.78991 20.0067 11.0613 19.071 12L16.949 14.121C16.006 15.065 14.75 15.586 13.414 15.586C12.078 15.586 10.822 15.065 9.879 14.121L9.172 13.414L10.586 12L11.293 12.707C12.426 13.84 14.402 13.84 15.535 12.707L17.657 10.586C18.2185 10.0227 18.5338 9.25983 18.5338 8.46449C18.5338 7.66916 18.2185 6.90626 17.657 6.34299C17.0935 5.78198 16.3307 5.46702 15.5355 5.46702C14.7403 5.46702 13.9775 5.78198 13.414 6.34299L12.707 7.04999L11.293 5.63599Z" fill="black"/>
<path d="M13.414 12L12.707 11.293C11.574 10.16 9.598 10.16 8.465 11.293L6.343 13.414C5.7815 13.9773 5.46621 14.7402 5.46621 15.5355C5.46621 16.3308 5.7815 17.0937 6.343 17.657C6.90653 18.218 7.66933 18.533 8.4645 18.533C9.25967 18.533 10.0225 18.218 10.586 17.657L11.293 16.95L12.707 18.364L12 19.071C11.536 19.5357 10.9848 19.9041 10.378 20.155C9.77111 20.4059 9.12066 20.5344 8.464 20.533C7.80752 20.5342 7.15727 20.4056 6.55062 20.1547C5.94397 19.9038 5.39287 19.5355 4.929 19.071C3.99329 18.1323 3.46787 16.8609 3.46787 15.5355C3.46787 14.2101 3.99329 12.9387 4.929 12L7.051 9.879C7.994 8.935 9.25 8.414 10.586 8.414C11.922 8.414 13.178 8.935 14.121 9.879L14.828 10.586L13.414 12Z" fill="black"/>
</svg>
