<svg width="24" height="24" viewBox="0 0 24 24" fill="none" xmlns="http://www.w3.org/2000/svg">
<path fill-rule="evenodd" clip-rule="evenodd" d="M12 3.138C12.742 3.138 13.42 3.545 13.768 4.2L21.107 18.064C21.2695 18.3685 21.35 18.7101 21.3406 19.0551C21.3311 19.4002 21.232 19.7369 21.053 20.032C20.688 20.638 20.047 21 19.339 21H4.66099C4.31594 21.0015 3.97645 20.9131 3.67604 20.7433C3.37563 20.5736 3.12469 20.3284 2.94799 20.032C2.76871 19.737 2.66944 19.4003 2.65997 19.0552C2.6505 18.7101 2.73116 18.3684 2.89399 18.064L10.232 4.201C10.58 3.545 11.258 3.138 12 3.138ZM12 5.137L4.66099 19H19.344L12 5.137ZM13.001 10H11.001V15H13.001V10ZM13 16H11V18H13V16Z" fill="black"/>
</svg>
