<?xml version="1.0" encoding="utf-8"?>
<!-- Generator: Adobe Illustrator 25.1.0, SVG Export Plug-In . SVG Version: 6.00 Build 0)  -->
<svg version="1.1" id="Calque_1" xmlns="http://www.w3.org/2000/svg" xmlns:xlink="http://www.w3.org/1999/xlink" x="0px" y="0px"
	 viewBox="0 0 64 64" style="enable-background:new 0 0 64 64;" xml:space="preserve">
<style type="text/css">
	.st0{fill: #1A2C42;}
	.st1{fill: #FFFFFF;}

	@media (prefers-color-scheme: dark) {
      .st0 {fill: #FFF;}
	  .st1 {fill: #1A2C42;}
    }
</style>
<path class="st0" d="M59.05,64H4.95C2.22,64,0,61.78,0,59.05V4.95C0,2.22,2.22,0,4.95,0h54.1C61.78,0,64,2.22,64,4.95v54.1
	C64,61.78,61.78,64,59.05,64z"/>
<g>
	<path class="st1" d="M29.9,36.9c-0.13,7.62-6.48,11.28-12.91,11.28c-1.1,0-6.34-0.53-9.39-3.44c1.06-1.06,3.18-3.17,6.3-6.39
		c0.66,0.66,1.67,1.1,3.39,1.1c2.25,0,3.92-1.41,3.92-3.83V15.13h8.68V36.9z"/>
	<path class="st1" d="M48.73,25.26c0-1.37-1.14-2.51-2.51-2.51c-1.36,0-2.47,1.15-2.47,2.51c0,1.37,1.11,2.47,2.47,2.47
		c3.22,0,6.13,1.54,7.98,3.92c1.41,1.76,2.2,3.97,2.2,6.39c0,5.64-4.54,10.14-10.18,10.14s-10.18-4.45-10.18-10.27h7.71
		c0,1.41,1.11,2.51,2.47,2.51c1.37,0,2.51-1.1,2.51-2.47c0-1.37-1.14-2.51-2.51-2.51c-5.64,0-10.13-4.49-10.13-10.13
		s4.49-10.18,10.13-10.18S56.4,19.62,56.4,25.26H48.73z"/>
</g>
</svg>
